<?xml version="1.0" standalone="no"?>
<!DOCTYPE svg PUBLIC "-//W3C//DTD SVG 20010904//EN"
 "http://www.w3.org/TR/2001/REC-SVG-20010904/DTD/svg10.dtd">
<svg version="1.0" xmlns="http://www.w3.org/2000/svg"
 width="1123.000000pt" height="794.000000pt" viewBox="0 0 1123.000000 794.000000"
 preserveAspectRatio="xMidYMid meet">

<g transform="translate(0.000000,794.000000) scale(0.100000,-0.100000)"
fill="#000000" stroke="none">
<path d="M5691 4950 c-39 -54 -55 -131 -41 -195 13 -57 24 -80 61 -123 88
-100 94 -215 17 -324 -16 -22 -3 -35 17 -18 29 24 57 92 62 152 7 71 -13 130
-64 191 -87 103 -97 223 -26 307 18 22 23 34 15 42 -7 7 -19 -2 -41 -32z"/>
<path d="M5866 4959 c-35 -41 -60 -130 -52 -186 7 -52 27 -94 73 -150 18 -23
40 -58 48 -77 30 -72 13 -180 -37 -233 -24 -25 -17 -43 10 -27 27 17 62 95 68
150 9 69 -14 135 -70 202 -84 103 -88 214 -11 319 26 34 0 37 -29 2z"/>
<path d="M5415 4249 c-109 -9 -195 -39 -230 -81 -25 -29 -28 -30 -64 -19 -86
25 -167 8 -213 -47 -39 -46 -51 -94 -46 -177 15 -238 278 -453 452 -370 27 13
41 15 43 8 3 -7 20 -32 38 -56 54 -71 139 -126 248 -161 15 -5 8 -19 -47 -100
-67 -98 -83 -142 -73 -203 12 -70 20 -73 207 -73 188 0 197 3 185 62 -18 81
-78 148 -134 148 -11 0 -21 4 -21 9 0 18 42 81 50 76 4 -3 51 -72 105 -154 53
-83 104 -153 114 -156 21 -6 150 29 202 55 50 26 106 76 125 111 17 34 18 105
1 139 -44 87 -180 94 -285 13 l-34 -26 -38 44 c-21 24 -35 47 -32 50 4 3 29
14 55 23 159 59 254 225 264 467 7 144 -2 174 -68 233 -88 79 -360 168 -554
181 -44 3 -98 7 -120 9 -22 1 -80 -1 -130 -5z m365 -44 c116 -22 263 -69 351
-113 54 -27 81 -48 104 -80 29 -42 30 -48 29 -145 -3 -287 -115 -457 -333
-503 -215 -45 -424 26 -531 182 l-31 44 21 39 c20 41 28 97 11 86 -5 -3 -12
-19 -16 -36 -9 -42 -59 -95 -102 -110 -115 -38 -278 63 -357 221 -60 120 -58
226 7 296 70 77 189 62 309 -37 26 -22 49 -39 52 -39 22 0 -16 44 -84 98 l-25
20 24 26 c27 29 84 53 156 66 71 13 315 4 415 -15z m0 -890 c10 -12 7 -23 -17
-61 -28 -46 -40 -57 -76 -68 -32 -10 -7 -26 41 -26 26 0 63 -8 82 -18 39 -19
80 -82 80 -124 l0 -28 -153 0 c-186 0 -192 3 -185 98 4 53 10 67 69 150 63 90
65 92 105 92 25 0 47 -6 54 -15z m198 -38 c34 -42 41 -57 36 -77 -11 -38 -10
-65 1 -68 5 -2 13 11 16 29 25 119 213 188 289 107 62 -67 16 -174 -100 -233
-46 -23 -146 -55 -173 -55 -12 0 -237 324 -237 343 0 4 28 7 63 7 l62 0 43
-53z"/>
<path d="M5027 4039 c-118 -69 23 -389 172 -389 43 0 60 9 76 41 37 70 4 195
-73 280 -63 70 -128 96 -175 68z m116 -44 c63 -41 119 -150 121 -233 0 -46 -3
-57 -24 -74 -43 -35 -118 2 -173 85 -43 65 -57 107 -57 168 0 39 5 51 25 67
28 22 61 18 108 -13z"/>
<path d="M5782 3954 c-12 -8 -22 -26 -22 -40 0 -30 12 -31 25 -1 7 15 20 23
43 25 27 3 34 -1 42 -22 11 -30 30 -35 30 -8 0 26 -42 62 -71 62 -13 0 -35 -7
-47 -16z"/>
<path d="M6024 3925 c-24 -36 -6 -53 21 -19 24 31 53 28 62 -6 7 -27 23 -25
23 3 0 32 -18 47 -57 47 -24 0 -37 -7 -49 -25z"/>
<path d="M5780 3766 c0 -37 31 -89 72 -119 43 -32 132 -34 183 -5 39 23 85 87
85 121 0 30 -19 19 -35 -20 -33 -79 -102 -116 -176 -94 -46 14 -96 69 -105
116 -8 44 -24 46 -24 1z"/>
</g>
</svg>
