<?xml version="1.0" standalone="no"?>
<!DOCTYPE svg PUBLIC "-//W3C//DTD SVG 20010904//EN"
 "http://www.w3.org/TR/2001/REC-SVG-20010904/DTD/svg10.dtd">
<svg version="1.0" xmlns="http://www.w3.org/2000/svg"
 width="1123.000000pt" height="794.000000pt" viewBox="0 0 1123.000000 794.000000"
 preserveAspectRatio="xMidYMid meet">

<g transform="translate(0.000000,794.000000) scale(0.100000,-0.100000)"
fill="#000000" stroke="none">
<path d="M5465 4765 c-98 -27 -195 -85 -270 -159 -201 -202 -230 -513 -69
-749 61 -89 130 -149 232 -199 l82 -41 0 -172 c0 -170 0 -172 -25 -195 -17
-16 -25 -34 -25 -57 l0 -34 98 3 97 3 3 218 2 218 38 -3 37 -3 3 -158 3 -158
-31 -26 c-25 -20 -30 -32 -28 -57 l3 -31 95 0 95 0 3 230 2 230 73 37 c187 97
307 278 323 489 20 281 -167 540 -446 614 -68 18 -228 18 -295 0z m318 -35
c235 -73 397 -294 397 -540 0 -268 -189 -499 -455 -555 -88 -18 -132 -18 -220
0 -214 45 -386 209 -440 420 -44 174 5 373 127 509 149 168 378 232 591 166z
m-3 -1330 l0 -220 -70 0 c-67 0 -70 1 -70 23 0 16 9 28 25 35 l25 12 0 175 0
175 28 6 c15 3 32 7 37 9 6 2 13 4 18 4 4 1 7 -98 7 -219z m-234 200 c11 0 14
-38 14 -210 l0 -210 -69 0 c-39 0 -72 4 -75 9 -10 16 6 42 30 52 l24 9 0 181
0 182 31 -7 c17 -3 38 -6 45 -6z"/>
<path d="M5616 4694 c-12 -12 -13 -20 -5 -35 14 -27 53 -22 57 8 4 30 -31 49
-52 27z"/>
<path d="M5286 4558 c-9 -12 -16 -29 -16 -38 0 -30 30 -60 60 -60 36 0 60 24
60 60 0 16 -7 36 -16 44 -23 24 -70 20 -88 -6z"/>
<path d="M5917 4542 c-23 -25 -21 -68 3 -92 25 -25 52 -26 73 -2 24 26 21 59
-8 87 -29 30 -46 31 -68 7z"/>
<path d="M5430 4310 c-22 -22 -26 -45 -10 -55 6 -3 14 5 20 19 13 36 57 36 70
1 11 -30 30 -33 30 -5 0 28 -35 60 -65 60 -14 0 -34 -9 -45 -20z"/>
<path d="M5710 4310 c-21 -21 -27 -60 -10 -60 6 0 15 11 20 25 13 35 57 35 70
-1 6 -14 14 -22 20 -19 29 18 -13 75 -55 75 -14 0 -34 -9 -45 -20z"/>
<path d="M5169 4151 c-18 -14 -24 -29 -24 -61 0 -32 6 -47 24 -61 32 -26 56
-24 80 7 28 36 27 79 -4 109 -29 30 -45 31 -76 6z"/>
<path d="M5520 4114 c0 -66 69 -107 133 -80 41 17 60 46 55 84 -4 26 -4 26
-20 -10 -32 -71 -107 -76 -140 -10 -23 47 -28 50 -28 16z"/>
<path d="M5982 4018 c-27 -27 -3 -88 34 -88 15 0 54 35 54 48 0 4 -7 18 -16
30 -17 24 -53 29 -72 10z"/>
<path d="M5258 3905 c-14 -30 3 -55 37 -55 12 0 28 7 35 15 20 24 -3 65 -35
65 -17 0 -29 -8 -37 -25z"/>
<path d="M5799 3829 c-23 -23 -22 -57 4 -73 23 -15 71 12 75 42 7 49 -42 68
-79 31z"/>
</g>
</svg>
